<?xml version="1.0" encoding="utf-8"?><svg width="800" height="4810" viewBox="0 0 800 4810" xmlns="http://www.w3.org/2000/svg" xmlns:xlink="http://www.w3.org/1999/xlink"><svg viewBox="0 0 800 800" width="800" height="800" id="svg--behance"><path d="M569 532c28 0 49-15 56-33h62c-17 55-55 86-120 86-79 0-132-53-132-135 0-80 57-136 132-136 81 0 130 66 125 153H506c1 41 21 65 63 65zm-282 46H115V224h167c67 0 114 20 114 87 0 40-19 60-48 74 40 11 64 41 64 90 0 72-58 103-125 103zm-10-60c34 0 57-12 57-47 0-36-21-51-56-51h-85v98h84zm288-151c-34 0-57 22-59 55h115c-4-34-21-55-56-55zm-293 0c28 0 48-13 48-42 0-31-23-41-54-41h-73v83h79zm364-120v35H492v-35h144z"/></svg><svg viewBox="0 0 800 800" width="800" height="800" id="svg--buffer" y="800"><path d="M381 661L150 553c-13-6-13-12-1-18l39-18c12-6 23-8 40 0l154 72c12 6 24 6 36 0l154-72c17-8 28-6 40 0l39 18c12 6 12 12-1 18L419 661c-13 6-25 6-38 0zm0-144L149 409c-12-6-12-12 0-18l39-18c12-6 25-7 40 0l154 72c12 6 24 6 36 0l154-72c15-7 28-6 40 0l39 18c12 6 12 12 0 18L419 517c-13 6-25 6-38 0zm0-144L149 265c-13-6-11-12 1-18l230-107c15-7 25-7 40 0l230 107c12 6 14 12 1 18L419 373c-13 6-25 6-38 0z"/></svg><svg viewBox="0 0 800 800" width="800" height="800" id="svg--codepen" y="1600"><path d="M140 478V321q0-12 10-19l238-158q12-8 24 0l238 158q10 7 10 19v158q0 12-10 19L412 656q-12 8-24 0L150 497q-10-7-10-19zm282-274v104l97 65 78-52zm-44 104V204L203 321l78 52zm-193 54v75l56-37zm193 234V492l-97-65-78 52zm22-143l79-53-79-53-79 53zm22 143l175-117-78-52-97 64v105zm193-159v-75l-56 38z"/></svg><svg viewBox="0 0 10 10" width="10" height="10" id="svg--delicious" y="2400"><path d="M2 5h3v3H2z"/><path d="M5 5h3v3H5z" fill="#ddd"/><path d="M2 2h3v3H2z" fill="#fff"/><path d="M5 2h3v3H5z" fill="#3274d1"/></svg><svg viewBox="0 0 800 800" width="800" height="800" id="svg--dribbble" y="2410"><path d="M400 665c-146 0-265-119-265-265s119-265 265-265 265 119 265 265-119 265-265 265zm223-229s-69-22-140-9c30 81 43 161 43 161s82-49 97-152zM488 609s-15-90-48-172c-132 44-179 142-179 142s96 83 227 30zm-256-57c80-128 193-152 193-152s-12-27-19-39c-124 37-232 32-232 32s-8 87 58 159zm-54-198s102 2 210-28c-38-71-84-130-84-130-107 49-126 158-126 158zm169-174s50 65 85 134c84-31 118-83 118-83s-76-78-203-51zm102 167c6 11 20 44 20 44s64-11 157 7c0-85-51-141-51-141s-38 55-126 90z"/></svg><svg viewBox="0 0 800 800" width="800" height="800" id="svg--email" y="3210"><path d="M627 180c29 0 53 24 53 53v334c0 29-24 53-53 53H173c-29 0-53-24-53-53V233c0-29 24-53 53-53h454zm-7 113v-53L400 387 180 240v53l220 147z"/></svg><svg viewBox="0 0 800 800" width="800" height="800" id="svg--facebook" y="4010"><path d="M445 643h-90V419h-75v-87h75v-64q0-55 32-86 30-29 80-29 28 0 67 3v78h-47q-42 0-42 38v60h86l-11 87h-75v224z"/></svg></svg>